# xmcd
#
# Track frame offsets:
#	150
#	2718
#	7220
#	44853
#	65420
#	72099
#	72462
#	92989
#	127741
#	135036
#	170607
#	194073
#
# Disc length: 2740 seconds
#
# Revision: 1
# Processed by: cddbd v1.5.1PL2 Copyright (c) Steve Scherf et al.
# Submitted via: EasyCDDAExtractor 9.0.0.1
#
DISCID=ae0ab20c
DTITLE=Saxon - Lloyd Noble Arena Norman 22-07-83
DYEAR=1983
DGENRE=Hard Rock
TTITLE0=Intro
TTITLE1=Commercials
TTITLE2=Power And The Glory
TTITLE3=Princess Of The Night
TTITLE4=Commercials
TTITLE5=Announcer
TTITLE6=Redline
TTITLE7=The Eagle Has Landed
TTITLE8=Commercials
TTITLE9=This Town Rocks
TTITLE10=Strong Arm Of The Law
TTITLE11=Commercials
EXTD=
EXTT0=
EXTT1=
EXTT2=
EXTT3=
EXTT4=
EXTT5=
EXTT6=
EXTT7=
EXTT8=
EXTT9=
EXTT10=
EXTT11=
PLAYORDER=
